<svg xmlns="http://www.w3.org/2000/svg" width="365" height="195"><defs><clipPath id="a" clipPathUnits="userSpaceOnUse"><path d="M-342.75 732.75h960v-540h-960z"/></clipPath></defs><g class="layer"><path fill="#00bae9" d="M285.426 430.027H95.933v-74.8h189.493z"/><path fill="#002f47" d="M-93.733 430.027h-324.28v-74.8h324.28z"/><path fill="#dad4cb" d="M95.933 430.027H-93.733v-74.8H95.933z"/><path fill="#33586c" d="M-79.38 370.38h.054l1.68-2.734h1.226l-2.186 3.507 2.213 3.507h-1.253l-1.68-2.707h-.054l-1.68 2.707h-1.24l2.227-3.507-2.227-3.507h1.254z"/><g clip-path="url(#a)" transform="matrix(1.33333 0 0 -1.33333 0 720)"><path fill="#33586c" d="M-56.68 262.95h.78v-3.94h-.78zm-.1 1.07c0 .25.23.45.5.45.26 0 .48-.2.48-.45a.47.47 0 0 0-.48-.46c-.27 0-.5.2-.5.46M-50.89 263.604c-.89 0-1.57-.7-1.57-1.97s.68-1.97 1.61-1.97c.84 0 1.39.53 1.4 1.38h-1.29v.66h2.07v-.6c0-1.33-.91-2.17-2.19-2.17-1.43 0-2.39 1.04-2.39 2.7 0 1.68 1 2.7 2.35 2.7 1.14 0 2.02-.71 2.2-1.73h-.82c-.2.62-.67 1-1.37 1M-47.812 262.95h.75v-.62h.04c.15.42.54.68 1 .68.1 0 .25-.01.33-.02v-.74c-.06.02-.25.05-.41.05-.53 0-.93-.37-.93-.89v-2.4h-.78zM-43.79 259.536c.63 0 1.01.42 1.01.89v.37l-.93-.07c-.51-.04-.83-.22-.83-.62 0-.37.31-.57.75-.57m-.03 1.76c.26.02.85.05 1.04.06l-.01.31c0 .45-.27.71-.8.71-.45 0-.73-.21-.81-.5h-.77c.07.65.68 1.12 1.61 1.12.63 0 1.55-.23 1.55-1.37v-2.62h-.76v.54h-.02c-.16-.3-.52-.63-1.17-.63-.75 0-1.33.43-1.33 1.2 0 .9.76 1.13 1.47 1.19M-41.01 257.546v.65c.09-.01.24-.02.35-.02.24 0 .44.02.62.52l.1.26-1.45 3.99h.83l.99-3.05h.05l.99 3.05h.84l-1.63-4.46c-.22-.63-.63-.96-1.28-.96-.16 0-.31 0-.41.02"/><path fill="#fff" d="M-302.751 262.216h.04l1.26 2.05h.92l-1.64-2.63 1.66-2.63h-.94l-1.26 2.03h-.04l-1.26-2.03h-.93l1.67 2.63-1.67 2.63h.94zM-299.89 262.95h.78v-3.94h-.78zm-.1 1.07c0 .25.22.45.49.45.26 0 .49-.2.49-.45 0-.26-.23-.46-.49-.46-.27 0-.49.2-.49.46M-294.628 259.703c1.19 0 1.78.7 1.78 1.94 0 1.23-.59 1.92-1.74 1.92h-.9v-3.86zm-1.66-.7v5.26h1.75c1.55 0 2.48-.99 2.48-2.62 0-1.64-.93-2.64-2.53-2.64zM-288.587 261.322c0 .6-.39 1.04-.98 1.04-.62 0-1.03-.48-1.05-1.04zm-2.81-.37c0 1.21.73 2.05 1.82 2.05.9 0 1.75-.56 1.75-1.98v-.28h-2.8c.02-.75.46-1.18 1.11-1.18.44 0 .73.19.86.43h.78c-.17-.64-.78-1.07-1.65-1.07-1.16 0-1.87.8-1.87 2.03M-284.42 261.322c0 .6-.39 1.04-.98 1.04-.62 0-1.03-.48-1.05-1.04zm-2.81-.37c0 1.21.73 2.05 1.82 2.05.9 0 1.75-.56 1.75-1.98v-.28h-2.8c.02-.75.46-1.18 1.11-1.18.44 0 .73.19.86.43h.78c-.17-.64-.78-1.07-1.65-1.07-1.16 0-1.87.8-1.87 2.03M-281.102 259.587c.68 0 1.04.6 1.04 1.39 0 .78-.35 1.36-1.04 1.36-.67 0-1.02-.54-1.02-1.36s.36-1.39 1.02-1.39m-1.79 3.36h.76v-.64h.06c.14.25.41.69 1.14.69.95 0 1.65-.75 1.65-2.03 0-1.27-.69-2.04-1.65-2.04-.71 0-1 .43-1.14.7h-.04v-2.1h-.78zM-273.632 260.458c0 .5-.4.91-1.03.91h-1.17v-1.68h1.14c.75 0 1.06.33 1.06.77m-.2 2.36c0 .44-.29.76-.93.76h-1.07v-1.59h1.06c.53 0 .94.33.94.83m-2.8 1.45h1.92c1.12 0 1.67-.61 1.67-1.38 0-.66-.4-.99-.89-1.12v-.05c.53-.02 1.09-.48 1.09-1.3 0-.8-.55-1.41-1.78-1.41h-2.01zM-271.27 259.01h-.78v5.25h.78zM-267.824 262.95h.77v-3.94h-.75v.68h-.05c-.18-.42-.59-.73-1.18-.73-.76 0-1.3.5-1.3 1.48v2.51h.78v-2.41c0-.54.33-.88.8-.88.43 0 .93.31.93.99zM-263.476 261.322c0 .6-.39 1.04-.98 1.04-.62 0-1.03-.48-1.05-1.04zm-2.81-.37c0 1.21.72 2.05 1.82 2.05.9 0 1.75-.56 1.75-1.98v-.28h-2.8c.02-.75.46-1.18 1.11-1.18.44 0 .73.19.86.43h.78c-.17-.64-.78-1.07-1.65-1.07-1.16 0-1.87.8-1.87 2.03"/><path fill="#33586c" d="M82.715 262.216h.04l1.26 2.05h.92l-1.64-2.63 1.66-2.63h-.94l-1.26 2.03h-.04l-1.26-2.03h-.93l1.67 2.63-1.67 2.63h.94zM85.57 262.95h.78v-3.94h-.78zm-.1 1.07c0 .25.23.45.5.45.26 0 .48-.2.48-.45a.47.47 0 0 0-.48-.46c-.27 0-.5.2-.5.46M90.954 263.647c-.65 0-1.05-.33-1.05-.78 0-.5.54-.69.96-.79l.5-.14c.68-.16 1.51-.53 1.52-1.48-.01-.88-.71-1.54-1.95-1.54-1.18 0-1.92.59-1.97 1.55h.8c.05-.57.55-.85 1.17-.85.67 0 1.15.34 1.16.86-.01.45-.44.64-.99.79l-.63.17c-.84.23-1.37.66-1.37 1.39 0 .91.81 1.51 1.87 1.51 1.07 0 1.82-.61 1.84-1.46h-.78c-.05.49-.48.77-1.08.77M93.676 264.264h.78v-2.98h.06l1.56 1.67h.93l-1.59-1.7 1.7-2.25h-.95l-1.34 1.77-.37-.37v-1.4h-.78zM97.684 257.546v.65c.09-.01.24-.02.35-.02.24 0 .44.02.62.52l.1.26-1.45 3.99h.83l.99-3.05h.05l.99 3.05h.84l-1.63-4.46c-.22-.63-.63-.96-1.28-.96-.16 0-.31 0-.41.02M106.513 260.458c0 .5-.4.91-1.03.91h-1.17v-1.68h1.14c.75 0 1.06.33 1.06.77m-.2 2.36c0 .44-.29.76-.93.76h-1.07v-1.59h1.06c.53 0 .94.33.94.83m-2.8 1.45h1.92c1.12 0 1.67-.61 1.67-1.38 0-.66-.4-.99-.89-1.12v-.05c.53-.02 1.09-.48 1.09-1.3 0-.8-.55-1.41-1.78-1.41h-2.01zM108.87 259.01h-.78v5.25h.78zM112.32 262.95h.77v-3.94h-.75v.68h-.05c-.18-.42-.59-.73-1.18-.73-.76 0-1.3.5-1.3 1.48v2.51h.78v-2.41c0-.54.33-.88.8-.88.43 0 .93.31.93.99zM116.669 261.322c0 .6-.39 1.04-.98 1.04-.62 0-1.03-.48-1.05-1.04zm-2.81-.37c0 1.21.72 2.05 1.82 2.05.9 0 1.75-.56 1.75-1.98v-.28h-2.8c.02-.75.46-1.18 1.11-1.18.44 0 .73.19.86.43h.78c-.17-.64-.78-1.07-1.65-1.07-1.16 0-1.87.8-1.87 2.03M167.542 245.597c-.69 0-1.2-.53-1.2-1.5s.51-1.49 1.2-1.49c.5 0 .93.28 1.03.79l.62-.01c-.13-.79-.78-1.34-1.65-1.34-1.05 0-1.81.78-1.81 2.05 0 1.29.77 2.06 1.81 2.06.84 0 1.51-.5 1.65-1.36h-.62c-.1.51-.52.8-1.03.8M171.721 245.547v.03h-2.06v.52h2.69v-.54l-1.78-3.46h-.63zM172.975 243.145h.59c.03-.34.36-.59.76-.59.49 0 .84.35.84.83s-.36.84-.86.84c-.32 0-.57-.1-.71-.35h-.57l.26 2.22h2.26v-.51h-1.76l-.13-1.13h.04c.16.17.44.28.75.28.75 0 1.31-.56 1.31-1.34 0-.79-.59-1.35-1.43-1.35-.75 0-1.32.46-1.35 1.1M178.585 246.1l1.26-3.1h.05l1.27 3.1h.74v-4h-.58v2.89h-.04l-1.17-2.88h-.48l-1.18 2.89h-.03v-2.9h-.58v4zM182.654 243.145h.62c.02-.35.37-.57.82-.57.48 0 .83.26.83.65s-.33.68-.9.68h-.34v.49h.34c.45 0 .77.26.77.64 0 .36-.27.61-.69.61-.41 0-.76-.22-.78-.58h-.58c.01.65.62 1.09 1.36 1.09.79 0 1.28-.5 1.28-1.09 0-.45-.28-.78-.71-.89v-.03c.55-.07.86-.44.86-.94 0-.67-.61-1.16-1.44-1.16s-1.42.45-1.44 1.1M188.032 246.1l1.04-1.81h.04l1.05 1.81h.69l-1.46-2.43v-1.57h-.6v1.57l-1.45 2.43zM191.31 243.145h.59c.03-.34.36-.59.76-.59.49 0 .84.35.84.83s-.36.84-.86.84c-.32 0-.57-.1-.71-.35h-.57l.26 2.22h2.26v-.51h-1.76l-.13-1.13h.04c.16.17.44.28.75.28.75 0 1.31-.56 1.31-1.34 0-.79-.59-1.35-1.43-1.35-.75 0-1.32.46-1.35 1.1M196.18 246.1h.61v-1.91h.05l1.67 1.91h.76l-1.61-1.8 1.62-2.2h-.74l-1.28 1.78-.47-.54v-1.24h-.61zM201.981 244.1c0 .99-.33 1.54-.86 1.54-.54 0-.86-.55-.86-1.54 0-1 .32-1.53.86-1.53s.86.53.86 1.53m-2.33 0c0 1.3.55 2.06 1.47 2.06s1.47-.76 1.47-2.06c0-1.31-.55-2.06-1.47-2.06-.93 0-1.47.75-1.47 2.06M167.232 235.799c.59 0 .84.26.84.71s-.25.74-.84.74h-.76v-1.45zm-1.36 1.97h1.42c.93 0 1.39-.52 1.39-1.26 0-.54-.25-.94-.73-1.12l.88-1.62h-.69l-.81 1.51h-.86v-1.51h-.6zM171.227 237.213v.03h-2.06v.52h2.69v-.54l-1.78-3.46h-.63zM172.481 234.81h.59c.04-.34.36-.59.76-.59.49 0 .84.35.84.83s-.36.84-.86.84c-.32 0-.57-.1-.7-.35h-.58l.26 2.22h2.26v-.51h-1.76l-.13-1.13h.04c.16.17.45.28.75.28.75 0 1.31-.56 1.31-1.34s-.59-1.35-1.43-1.35c-.75 0-1.32.46-1.35 1.1M179.015 237.263c-.67 0-1.19-.53-1.19-1.5 0-.96.51-1.49 1.22-1.49.64 0 1.06.4 1.07 1.04h-.98v.5h1.57v-.45c0-1.01-.7-1.65-1.67-1.65-1.08 0-1.81.79-1.81 2.05 0 1.28.75 2.06 1.78 2.06.87 0 1.53-.54 1.67-1.32h-.62c-.15.47-.51.76-1.04.76M182.878 233.766h-.61v3.39h-.03l-.95-.62v.58l.99.65h.6zM186.015 236.7c0 .37-.29.62-.72.62-.44 0-.73-.24-.73-.62s.31-.63.73-.63.72.25.72.63m.13-1.82c0 .41-.36.71-.85.71-.5 0-.86-.3-.85-.71-.01-.39.32-.67.85-.67.52 0 .85.27.85.67m-2.32-.05c0 .52.37.94.84 1.01v.02c-.41.09-.69.46-.69.9 0 .61.56 1.06 1.32 1.06s1.31-.45 1.32-1.06c-.01-.44-.29-.81-.69-.9v-.02c.47-.07.84-.49.84-1.01 0-.65-.61-1.12-1.47-1.12-.87 0-1.47.47-1.47 1.12M189.688 235.064c0 .46-.35.83-.83.83-.49 0-.86-.39-.87-.84.01-.44.36-.84.85-.84s.85.38.85.85m-2.35.57c0 1.39.6 2.19 1.56 2.19.74 0 1.25-.46 1.34-1.1h-.6c-.08.33-.34.57-.74.57-.62 0-.98-.54-.98-1.45h.05c.21.34.59.55 1.03.55.71 0 1.28-.55 1.28-1.32s-.57-1.37-1.43-1.36c-.74 0-1.51.44-1.51 1.92M194.653 234.871c0 .38-.3.69-.78.69h-.89v-1.28h.86c.58 0 .81.26.81.59m-.15 1.8c0 .33-.23.58-.71.58h-.81v-1.21h.8c.41 0 .72.24.72.63m-2.13 1.09h1.46c.85 0 1.27-.45 1.27-1.04 0-.5-.31-.76-.68-.85v-.04c.4-.02.83-.37.83-.99 0-.61-.42-1.08-1.35-1.08h-1.53zM195.858 234.208l1.39 1.4c.43.46.65.71.65 1.06 0 .39-.32.64-.74.64-.44 0-.73-.28-.73-.7h-.57c-.01.73.55 1.21 1.31 1.21.78 0 1.31-.48 1.31-1.14 0-.44-.21-.8-.96-1.54l-.81-.82v-.03h1.84v-.52h-2.69zM199.207 234.81h.62c.02-.35.37-.57.82-.57.48 0 .83.26.83.65s-.33.68-.9.68h-.34v.49h.34c.45 0 .77.26.77.64 0 .36-.27.61-.69.61-.41 0-.76-.22-.78-.58h-.58c.01.65.62 1.09 1.36 1.09.79 0 1.28-.5 1.28-1.09 0-.45-.28-.78-.71-.89v-.02c.55-.08.86-.45.86-.95 0-.67-.61-1.16-1.44-1.16s-1.42.45-1.44 1.1M205.019 235.766c0 .99-.33 1.54-.86 1.54-.54 0-.86-.55-.86-1.54 0-1 .32-1.53.86-1.53s.86.53.86 1.53m-2.33 0c0 1.3.55 2.06 1.47 2.06s1.47-.76 1.47-2.06c0-1.31-.55-2.06-1.47-2.06-.93 0-1.47.75-1.47 2.06M165.868 229.43h.61v-1.73h1.99v1.73h.6v-4h-.6v1.75h-1.99v-1.75h-.61zM169.898 229.43h2.51v-.52h-1.9v-1.21h1.77v-.52h-1.77v-1.22h1.92v-.53h-2.53zM174.532 227.872h.03l.96 1.56h.7l-1.25-2 1.26-2h-.71l-.96 1.54h-.03l-.96-1.54h-.71l1.28 2-1.27 2h.71zM179.949 226.724v1.98h-.04l-1.26-1.95v-.03zm-1.94-.02 1.76 2.73h.75v-2.71h.55v-.51h-.55v-.78h-.57v.78h-1.94zM183.977 226.729c0 .46-.35.83-.83.83-.49 0-.86-.39-.87-.84.01-.44.36-.84.85-.84s.85.38.85.85m-2.35.57c0 1.39.6 2.19 1.56 2.19.73 0 1.25-.46 1.34-1.1h-.6c-.08.33-.34.57-.74.57-.62 0-.98-.54-.98-1.45h.05c.21.34.59.55 1.02.55.72 0 1.29-.55 1.29-1.32s-.57-1.37-1.43-1.36c-.74 0-1.51.44-1.51 1.92M186.232 225.834c.48 0 .77.32.77.68v.28l-.71-.05c-.39-.03-.63-.18-.63-.47s.24-.44.57-.44m-.02 1.34c.2.02.65.04.79.05l-.01.23c0 .34-.2.54-.61.54-.34 0-.55-.16-.61-.38h-.59c.06.5.52.86 1.23.86.47 0 1.17-.18 1.17-1.05v-1.99h-.57v.41h-.02c-.12-.23-.4-.48-.89-.48-.57 0-1.01.33-1.01.91 0 .69.58.86 1.12.9M188.304 226.475h.59c.04-.34.36-.59.76-.59.49 0 .84.35.84.83s-.36.84-.86.84c-.32 0-.57-.1-.7-.35h-.58l.26 2.22h2.26v-.51h-1.76l-.13-1.13h.04c.16.17.45.28.75.28.75 0 1.31-.56 1.31-1.34s-.59-1.35-1.43-1.35c-.75 0-1.32.46-1.35 1.1M193.746 227.193c0 .46-.29.79-.75.79-.47 0-.77-.36-.8-.79zm-2.14-.28c0 .92.56 1.56 1.39 1.56.68 0 1.33-.43 1.33-1.51v-.21h-2.13c.02-.57.35-.9.84-.9.34 0 .56.15.66.33h.59c-.13-.49-.59-.81-1.25-.81-.89 0-1.43.6-1.43 1.54M197.198 226.729c0 .46-.35.83-.83.83-.49 0-.86-.39-.87-.84.01-.44.36-.84.85-.84s.85.38.85.85m-2.35.57c0 1.39.6 2.19 1.56 2.19.74 0 1.25-.46 1.34-1.1h-.6c-.08.33-.34.57-.74.57-.62 0-.98-.54-.98-1.45h.05c.21.34.59.55 1.03.55.71 0 1.28-.55 1.28-1.32s-.57-1.37-1.43-1.36c-.74 0-1.51.44-1.51 1.92M82.7 251.003c.82 0 1.21.49 1.21 1.17s-.39 1.17-1.22 1.17h-1.18v-2.34zm-1.71 2.8h1.72c1.14 0 1.71-.7 1.71-1.63 0-.92-.57-1.64-1.7-1.64h-1.21v-1.99h-.52zM88.044 250.566l-.92 2.57h-.03l-.91-2.57zm-3.12-2.02 1.91 5.26h.56l1.91-5.26h-.55l-.55 1.56h-2.19l-.55-1.56zM94.172 248.548h-.49l-3.06 4.34h-.05v-4.34h-.51v5.26h.5l3.06-4.35h.04v4.35h.51zM95.106 253.806h3.84v-.47h-1.65v-4.79h-.53v4.8h-1.66zM101.939 253.393c-1.02 0-1.78-.81-1.78-2.22 0-1.39.76-2.21 1.78-2.21s1.78.81 1.78 2.21c0 1.41-.76 2.22-1.78 2.22m0-4.92c-1.34 0-2.29 1.06-2.29 2.7 0 1.65.95 2.71 2.29 2.71 1.33 0 2.28-1.06 2.28-2.71 0-1.64-.95-2.7-2.28-2.7M109.352 248.548h-.49l-3.06 4.34h-.05v-4.34h-.51v5.26h.5l3.06-4.35h.04v4.35h.51zM110.598 253.806h3.08v-.47h-2.56v-1.93h2.4v-.45h-2.4v-1.94h2.61v-.47h-3.13zM119.464 250.21c0 .69-.54 1.26-1.25 1.26-.74 0-1.3-.61-1.26-1.29.05-.7.56-1.25 1.25-1.25.72 0 1.26.58 1.26 1.28m-3.09.75c0 1.74.65 2.92 1.91 2.92.9 0 1.51-.57 1.62-1.39h-.51c-.1.53-.48.92-1.11.92-.9 0-1.42-.81-1.42-2.24h.06c.27.46.78.75 1.36.75.92 0 1.68-.71 1.68-1.71 0-.96-.7-1.74-1.76-1.74-.91.01-1.83.62-1.83 2.5M120.906 249.87h.52c.03-.56.57-.93 1.25-.93.74 0 1.26.43 1.27 1.02-.01.62-.53 1.06-1.38 1.06h-.32v.46h.32c.69 0 1.19.39 1.19.98 0 .57-.42.96-1.07.96-.62 0-1.14-.36-1.15-.93h-.51c.03.82.75 1.39 1.67 1.39.96 0 1.57-.63 1.56-1.39.01-.61-.36-1.05-.92-1.21v-.04c.69-.12 1.12-.61 1.11-1.28.01-.85-.75-1.48-1.77-1.48-1.01 0-1.74.56-1.77 1.39M128.276 252.47c0 .56-.47.96-1.13.96s-1.12-.4-1.12-.96c0-.57.48-.99 1.13-.99.63 0 1.12.42 1.12.99m.19-2.51c0 .61-.56 1.09-1.32 1.09-.74 0-1.31-.48-1.3-1.09-.01-.59.52-1.03 1.3-1.03.79 0 1.32.44 1.32 1.03m-3.14-.03c0 .67.47 1.23 1.1 1.34v.03c-.54.14-.9.62-.9 1.2 0 .79.69 1.38 1.62 1.38s1.63-.59 1.63-1.38c0-.58-.36-1.06-.89-1.2v-.03c.62-.11 1.09-.67 1.09-1.34 0-.84-.77-1.46-1.83-1.46s-1.82.62-1.82 1.46M133.859 253.393c-.99 0-1.78-.78-1.78-2.22 0-1.43.79-2.21 1.78-2.21.8 0 1.42.51 1.57 1.23h.52c-.17-.98-.98-1.72-2.09-1.72-1.34 0-2.29 1.06-2.29 2.7 0 1.65.95 2.71 2.29 2.71 1.11 0 1.91-.73 2.09-1.73h-.52c-.15.72-.77 1.24-1.57 1.24"/><path fill="#008ab4" d="M356.2 217.48H214.07v56.1H356.2z"/><path fill="#33586c" d="M303.996 245.597c-.69 0-1.2-.53-1.2-1.5s.51-1.49 1.2-1.49c.5 0 .93.28 1.03.79l.62-.01c-.13-.79-.78-1.34-1.66-1.34-1.04 0-1.8.78-1.8 2.05 0 1.29.77 2.06 1.8 2.06.85 0 1.52-.5 1.66-1.36h-.62c-.1.51-.52.8-1.03.8M308.367 245.033c0 .37-.29.62-.72.62-.44 0-.73-.24-.73-.62s.31-.63.73-.63.72.25.72.63m.13-1.82c0 .41-.36.71-.85.71-.5 0-.86-.3-.85-.71-.01-.4.32-.67.85-.67.52 0 .85.27.85.67m-2.32-.05c0 .52.37.94.84 1.01v.02c-.41.1-.69.46-.69.9 0 .61.56 1.06 1.32 1.06s1.31-.45 1.32-1.06c-.01-.44-.29-.81-.69-.9v-.02c.47-.07.84-.49.84-1.01 0-.65-.61-1.12-1.47-1.12s-1.47.47-1.47 1.12M310.285 244.813c0-.46.35-.83.83-.83s.86.39.86.84c0 .43-.35.82-.84.82s-.85-.37-.85-.83m2.35-.57c0-1.4-.6-2.2-1.56-2.2-.74 0-1.25.46-1.35 1.11h.6c.09-.34.35-.58.75-.58.62 0 .98.55.98 1.46h-.05c-.21-.34-.59-.55-1.02-.55-.72 0-1.29.55-1.29 1.32 0 .76.57 1.36 1.43 1.35.74 0 1.51-.44 1.51-1.91M315.465 246.1l1.26-3.1h.05l1.27 3.1h.74v-4h-.58v2.89h-.04l-1.17-2.88h-.48l-1.18 2.89h-.03v-2.9h-.58v4zM319.534 243.145h.62c.02-.35.37-.57.82-.57.48 0 .83.26.83.65s-.33.68-.9.68h-.34v.49h.34c.45 0 .77.26.77.64 0 .36-.27.61-.69.61-.41 0-.76-.22-.78-.58h-.58c.01.65.62 1.09 1.36 1.09.79 0 1.28-.5 1.28-1.09 0-.45-.28-.78-.71-.89v-.03c.55-.07.86-.44.86-.94 0-.67-.61-1.16-1.44-1.16s-1.42.45-1.44 1.1M325.379 243.398c0 .46-.35.83-.83.83-.49 0-.86-.39-.87-.84.01-.44.36-.84.85-.84s.85.38.85.85m-2.35.57c0 1.39.6 2.19 1.56 2.19.73 0 1.25-.46 1.34-1.1h-.6c-.08.33-.34.57-.74.57-.62 0-.98-.54-.98-1.45h.05c.21.34.59.54 1.02.54.72 0 1.29-.54 1.29-1.31s-.57-1.37-1.43-1.36c-.74 0-1.51.44-1.51 1.92M328.443 246.1l1.04-1.81h.04l1.05 1.81h.69l-1.46-2.43v-1.57h-.6v1.57l-1.45 2.43zM331.714 242.542l1.39 1.4c.43.46.65.71.65 1.06 0 .39-.32.64-.74.64-.44 0-.73-.28-.73-.7h-.57c-.01.73.55 1.21 1.31 1.21.78 0 1.31-.48 1.31-1.13 0-.45-.21-.81-.96-1.55l-.81-.82v-.03h1.84v-.52h-2.69zM337.371 243.398c0 .46-.35.83-.83.83-.49 0-.86-.39-.87-.84.01-.44.36-.84.85-.84s.85.38.85.85m-2.35.57c0 1.39.6 2.19 1.56 2.19.74 0 1.25-.46 1.34-1.1h-.6c-.08.33-.34.57-.74.57-.62 0-.98-.54-.98-1.45h.05c.21.34.59.54 1.03.54.71 0 1.28-.54 1.28-1.31s-.57-1.37-1.43-1.36c-.74 0-1.51.44-1.51 1.92M340.055 246.1h.61v-1.91h.05l1.67 1.91h.76l-1.61-1.8 1.62-2.2h-.74l-1.28 1.78-.47-.54v-1.24h-.61zM345.856 244.1c0 .99-.33 1.54-.86 1.54-.54 0-.86-.55-.86-1.54 0-1 .32-1.53.86-1.53s.86.53.86 1.53m-2.33 0c0 1.3.55 2.06 1.47 2.06s1.47-.76 1.47-2.06c0-1.31-.55-2.06-1.47-2.06-.93 0-1.47.75-1.47 2.06M303.687 235.799c.59 0 .83.26.83.71s-.24.74-.83.74h-.76v-1.45zm-1.36 1.97h1.42c.93 0 1.39-.52 1.39-1.26 0-.54-.25-.94-.73-1.12l.88-1.62h-.69l-.81 1.51h-.86v-1.51h-.6zM308.013 235.766c0 .99-.33 1.54-.86 1.54-.54 0-.86-.55-.86-1.54 0-1 .32-1.53.86-1.53s.86.53.86 1.53m-2.33 0c0 1.3.55 2.06 1.47 2.06s1.47-.76 1.47-2.06c0-1.31-.55-2.06-1.47-2.06-.93 0-1.47.75-1.47 2.06M312.357 237.263c-.67 0-1.19-.53-1.19-1.5 0-.96.51-1.49 1.22-1.49.64 0 1.06.4 1.07 1.04h-.98v.5h1.57v-.45c0-1.01-.7-1.65-1.67-1.65-1.08 0-1.81.79-1.81 2.05 0 1.28.75 2.06 1.79 2.06.86 0 1.52-.54 1.66-1.32h-.62c-.15.47-.51.76-1.04.76M316.222 233.766h-.61v3.39h-.03l-.95-.62v.58l.99.65h.6zM317.221 234.81h.62c.02-.35.37-.57.82-.57.48 0 .83.26.83.65s-.33.68-.9.68h-.34v.49h.34c.45 0 .77.26.77.64 0 .36-.27.61-.69.61-.41 0-.76-.22-.78-.58h-.58c.01.65.62 1.09 1.36 1.09.79 0 1.28-.5 1.28-1.09 0-.45-.28-.78-.71-.89v-.02c.55-.08.86-.45.86-.95 0-.67-.61-1.16-1.44-1.16s-1.42.45-1.44 1.1M320.757 234.81h.62c.02-.35.37-.57.82-.57.48 0 .83.26.83.65s-.33.68-.9.68h-.34v.49h.34c.45 0 .77.26.77.64 0 .36-.27.61-.69.61-.41 0-.76-.22-.78-.58h-.58c.01.65.62 1.09 1.36 1.09.79 0 1.28-.5 1.28-1.09 0-.45-.28-.78-.71-.89v-.02c.55-.08.86-.45.86-.95 0-.67-.61-1.16-1.44-1.16s-1.42.45-1.44 1.1M328.035 234.871c0 .38-.3.69-.78.69h-.89v-1.28h.86c.58 0 .81.26.81.59m-.15 1.8c0 .33-.23.58-.71.58h-.81v-1.21h.8c.41 0 .72.24.72.63m-2.13 1.09h1.46c.85 0 1.27-.45 1.27-1.04 0-.5-.31-.76-.68-.85v-.04c.4-.02.83-.37.83-.99 0-.61-.42-1.08-1.35-1.08h-1.53zM330.76 233.766h-.61v3.39h-.03l-.95-.62v.58l.99.65h.6zM333.703 237.213v.03h-2.06v.52h2.69v-.54l-1.78-3.46h-.63zM334.93 234.81h.62c.02-.35.37-.57.82-.57.48 0 .83.26.83.65s-.33.68-.9.68h-.34v.49h.34c.45 0 .77.26.77.64 0 .36-.27.61-.69.61-.41 0-.76-.22-.78-.58h-.58c.02.65.62 1.09 1.36 1.09.79 0 1.28-.5 1.28-1.09 0-.45-.28-.78-.71-.89v-.02c.55-.08.86-.45.86-.95 0-.67-.61-1.16-1.44-1.16s-1.42.45-1.44 1.1M302.322 229.43h.61v-1.73h1.99v1.73h.6v-4h-.6v1.75h-1.99v-1.75h-.61zM306.351 229.43h2.51v-.52h-1.9v-1.21h1.77v-.52h-1.77v-1.22h1.92v-.53h-2.53zM310.986 227.872h.03l.96 1.56h.7l-1.25-2 1.26-2h-.71l-.96 1.54h-.03l-.96-1.54h-.71l1.28 2-1.27 2h.71zM316.801 227.43c0 .99-.33 1.54-.86 1.54-.54 0-.86-.55-.86-1.54 0-1 .32-1.53.86-1.53s.86.53.86 1.53m-2.33 0c0 1.3.55 2.06 1.47 2.06s1.47-.76 1.47-2.06c0-1.31-.55-2.06-1.47-2.06-.93 0-1.47.75-1.47 2.06M320.298 227.43c0 .99-.33 1.54-.86 1.54-.54 0-.86-.55-.86-1.54 0-1 .32-1.53.86-1.53s.86.53.86 1.53m-2.33 0c0 1.3.55 2.06 1.47 2.06s1.47-.76 1.47-2.06c0-1.31-.55-2.06-1.47-2.06-.93 0-1.47.75-1.47 2.06M323.658 228.364c0 .37-.29.62-.72.62-.44 0-.73-.24-.73-.62s.31-.63.73-.63.72.25.72.63m.13-1.82c0 .41-.36.71-.85.71-.5 0-.86-.3-.85-.71-.01-.39.32-.67.85-.67.52 0 .85.27.85.67m-2.32-.05c0 .52.37.94.84 1.01v.02c-.41.09-.69.46-.69.9 0 .61.56 1.06 1.32 1.06s1.31-.45 1.32-1.06c-.01-.44-.29-.81-.69-.9v-.02c.47-.07.84-.49.84-1.01 0-.65-.61-1.12-1.47-1.12-.87 0-1.47.47-1.47 1.12M325.051 226.475h.59c.04-.34.36-.59.76-.59.49 0 .84.35.84.83s-.36.84-.86.84c-.32 0-.57-.1-.7-.35h-.58l.26 2.22h2.26v-.51h-1.76l-.13-1.13h.04c.16.17.45.28.75.28.75 0 1.31-.56 1.31-1.34s-.59-1.35-1.43-1.35c-.75 0-1.32.46-1.35 1.1M329.493 225.834c.48 0 .77.32.77.68v.28l-.71-.05c-.39-.03-.63-.18-.63-.47s.24-.44.57-.44m-.02 1.34c.2.02.65.04.79.05l-.01.23c0 .34-.2.54-.61.54-.34 0-.55-.16-.61-.38h-.59c.06.5.52.86 1.23.86.47 0 1.17-.18 1.17-1.05v-1.99h-.57v.41h-.02c-.12-.23-.4-.48-.89-.48-.57 0-1.01.33-1.01.91 0 .69.58.86 1.12.9M333.604 226.934c0 .62-.28 1.03-.78 1.03-.53 0-.79-.44-.79-1.03 0-.6.27-1.06.78-1.06s.79.43.79 1.06m-2.17-.01c0 .98.53 1.55 1.26 1.55.56 0 .76-.34.87-.53h.02v1.49h.59v-4h-.57v.47h-.05c-.11-.2-.32-.53-.87-.53-.72 0-1.25.58-1.25 1.55"/><path fill="#fff" d="M-302.765 251.003c.82 0 1.21.49 1.21 1.17s-.39 1.17-1.22 1.17h-1.18v-2.34zm-1.71 2.8h1.72c1.14 0 1.71-.7 1.71-1.63 0-.92-.57-1.64-1.7-1.64h-1.21v-1.99h-.52zM-297.42 250.566l-.92 2.57h-.03l-.91-2.57zm-3.12-2.02 1.91 5.26h.56l1.91-5.26h-.55l-.55 1.56h-2.19l-.55-1.56zM-291.293 248.548h-.49l-3.06 4.34h-.05v-4.34h-.51v5.26h.5l3.06-4.35h.04v4.35h.51zM-290.36 253.806h3.84v-.47h-1.65v-4.79h-.53v4.8h-1.66zM-283.526 253.393c-1.02 0-1.78-.81-1.78-2.22 0-1.39.76-2.21 1.78-2.21s1.78.81 1.78 2.21c0 1.41-.76 2.22-1.78 2.22m0-4.92c-1.34 0-2.29 1.06-2.29 2.7 0 1.65.95 2.71 2.29 2.71 1.33 0 2.28-1.06 2.28-2.71 0-1.64-.95-2.7-2.28-2.7M-276.113 248.548h-.49l-3.06 4.34h-.05v-4.34h-.51v5.26h.5l3.06-4.35h.04v4.35h.51zM-274.867 253.806h3.08v-.47h-2.56v-1.93h2.4v-.45h-2.4v-1.94h2.61v-.47h-3.13zM-269.009 248.925l1.78 1.92c.67.74.95 1.11.96 1.6-.01.58-.48.98-1.11.98-.66 0-1.09-.44-1.09-1.06h-.5c0 .89.69 1.51 1.61 1.51.91 0 1.57-.62 1.57-1.43 0-.58-.27-1.03-1.18-1.99l-1.31-1.41v-.03h2.65v-.47h-3.38zM-262.953 248.548h-.52v4.72h-.03l-1.24-.82v.53l1.25.83h.54zM-258.655 252.47c0 .56-.47.96-1.13.96s-1.12-.4-1.12-.96c0-.57.48-.99 1.13-.99.63 0 1.12.42 1.12.99m.19-2.51c0 .61-.56 1.09-1.32 1.09-.74 0-1.31-.48-1.3-1.09-.01-.59.52-1.03 1.3-1.03.79 0 1.32.44 1.32 1.03m-3.14-.03c0 .67.47 1.23 1.1 1.34v.03c-.54.14-.9.62-.9 1.2 0 .79.69 1.38 1.62 1.38s1.63-.59 1.63-1.38c0-.58-.36-1.06-.89-1.2v-.03c.62-.11 1.09-.67 1.09-1.34 0-.84-.77-1.46-1.83-1.46s-1.82.62-1.82 1.46M-256.61 252.157c0-.7.53-1.26 1.25-1.26.73 0 1.3.61 1.26 1.29-.06.69-.56 1.23-1.26 1.23-.72 0-1.26-.57-1.25-1.26m3.09-.75c0-1.75-.66-2.93-1.91-2.93-.9 0-1.51.56-1.63 1.4h.51c.11-.54.49-.94 1.12-.94.9 0 1.42.82 1.42 2.26h-.06c-.27-.46-.78-.75-1.36-.75-.92 0-1.68.71-1.68 1.7 0 .95.69 1.74 1.75 1.73.92-.01 1.84-.62 1.84-2.47M-248.615 253.393c-.99 0-1.78-.78-1.78-2.22 0-1.43.79-2.21 1.78-2.21.8 0 1.42.51 1.57 1.23h.52c-.17-.98-.98-1.72-2.09-1.72-1.34 0-2.29 1.06-2.29 2.7 0 1.65.95 2.71 2.29 2.71 1.11 0 1.91-.73 2.09-1.73h-.52c-.15.72-.77 1.24-1.57 1.24"/><path fill="#33586c" d="M-59.55 251.003c.82 0 1.21.49 1.21 1.17s-.39 1.17-1.22 1.17h-1.18v-2.34zm-1.71 2.8h1.72c1.14 0 1.71-.7 1.71-1.63 0-.92-.57-1.64-1.7-1.64h-1.21v-1.99h-.52zM-54.206 250.566l-.92 2.57h-.03l-.91-2.57zm-3.12-2.02 1.91 5.26h.56l1.91-5.26h-.55l-.55 1.56h-2.19l-.55-1.56zM-48.078 248.548h-.49l-3.06 4.34h-.05v-4.34h-.51v5.26h.5l3.06-4.35h.04v4.35h.51zM-47.144 253.806h3.84v-.47h-1.65v-4.79h-.53v4.8h-1.66zM-40.311 253.393c-1.02 0-1.78-.81-1.78-2.22 0-1.39.76-2.21 1.78-2.21s1.78.81 1.78 2.21c0 1.41-.76 2.22-1.78 2.22m0-4.92c-1.34 0-2.29 1.06-2.29 2.7 0 1.65.95 2.71 2.29 2.71 1.33 0 2.28-1.06 2.28-2.71 0-1.64-.95-2.7-2.28-2.7M-32.898 248.548h-.49l-3.06 4.34h-.05v-4.34h-.51v5.26h.5l3.06-4.35h.04v4.35h.51zM-31.652 253.806h3.08v-.47h-2.56v-1.93h2.4v-.45h-2.4v-1.94h2.61v-.47h-3.13zM-23.629 253.393c-.99 0-1.78-.78-1.78-2.22 0-1.43.79-2.21 1.78-2.21.8 0 1.42.51 1.57 1.23h.52c-.17-.98-.98-1.72-2.09-1.72-1.34 0-2.29 1.06-2.29 2.7 0 1.65.95 2.71 2.29 2.71 1.11 0 1.91-.73 2.09-1.73h-.52c-.15.72-.77 1.24-1.57 1.24M-17.85 250.501c0 .86-.44 1.6-1.25 1.6s-1.26-.74-1.26-1.6.45-1.59 1.26-1.59 1.25.73 1.25 1.59m-3 0c0 1.21.72 2.05 1.75 2.05s1.74-.84 1.74-2.05-.71-2.03-1.74-2.03-1.75.82-1.75 2.03M-13.69 250.501c0 .86-.44 1.6-1.25 1.6s-1.26-.74-1.26-1.6.45-1.59 1.26-1.59 1.25.73 1.25 1.59m-3 0c0 1.21.72 2.05 1.75 2.05s1.74-.84 1.74-2.05-.71-2.03-1.74-2.03-1.75.82-1.75 2.03M-11.83 248.55h-.5v5.26h.5zM-6.293 250.538c0 .91-.43 1.56-1.19 1.56-.78 0-1.19-.69-1.19-1.56 0-.89.42-1.5 1.19-1.5.75 0 1.19.56 1.19 1.5m-2.76-2.48h.52c.1-.42.51-.64 1.08-.64.72 0 1.15.34 1.15 1.06v.87h-.04c-.15-.34-.49-.76-1.21-.76-.94 0-1.62.75-1.62 1.96s.66 2 1.63 2c.73 0 1.05-.46 1.21-.79h.04v.73h.49v-4.04c0-1-.7-1.46-1.65-1.46-.87 0-1.5.37-1.6 1.07M-4.74 252.491h.48v-.61h.04c.16.4.58.67 1.06.67.08 0 .2 0 .26-.01v-.5c-.05.01-.16.03-.29.03-.61 0-1.05-.42-1.05-.99v-2.53h-.5zM-1.073 248.903c.73 0 1.17.52 1.17 1.15v.42l-1.02-.07c-.7-.06-1.03-.32-1.03-.77 0-.47.37-.73.88-.73m.08 1.92c.26.02.9.05 1.09.06v.37c0 .53-.34.85-.96.85-.52 0-.86-.24-.96-.59h-.52c.08.62.69 1.04 1.51 1.04.59 0 1.42-.26 1.42-1.34v-2.67h-.49v.61h-.03c-.16-.34-.55-.69-1.21-.69-.72 0-1.3.42-1.3 1.19 0 .8.64 1.1 1.45 1.17M1.691 247.08l.01.44h.24c.25 0 .51.03.72.61l.13.38-1.45 3.98h.54l1.15-3.3h.03l1.16 3.3h.53l-1.67-4.55c-.21-.58-.58-.88-1.11-.88-.11 0-.21.01-.28.02M8.952 248.548h-.52v4.72h-.03l-1.24-.82v.53l1.25.83h.54zM12.575 253.393c-.99 0-1.78-.78-1.78-2.22 0-1.43.79-2.21 1.78-2.21.8 0 1.42.51 1.57 1.23h.52c-.17-.98-.98-1.72-2.09-1.72-1.34 0-2.29 1.06-2.29 2.7 0 1.65.95 2.71 2.29 2.71 1.11 0 1.91-.73 2.09-1.73h-.52c-.15.72-.77 1.24-1.57 1.24"/><path fill="#fff" d="M-125.404 245.597c-.69 0-1.2-.53-1.2-1.5s.51-1.49 1.2-1.49c.5 0 .93.28 1.03.79l.62-.01c-.13-.79-.78-1.34-1.65-1.34-1.05 0-1.81.78-1.81 2.05 0 1.29.77 2.06 1.81 2.06.84 0 1.51-.5 1.65-1.36h-.62c-.1.51-.52.8-1.03.8M-121.629 242.1h-.61v3.39h-.03l-.95-.62v.58l.99.65h.6zM-118.355 244.1c0 .99-.33 1.54-.86 1.54-.54 0-.86-.55-.86-1.54 0-1 .32-1.53.86-1.53s.86.53.86 1.53m-2.33 0c0 1.3.55 2.06 1.47 2.06s1.47-.76 1.47-2.06c0-1.31-.55-2.06-1.47-2.06-.93 0-1.47.75-1.47 2.06M-114.856 244.1c0 .99-.33 1.54-.86 1.54-.54 0-.86-.55-.86-1.54 0-1 .32-1.53.86-1.53s.86.53.86 1.53m-2.33 0c0 1.3.55 2.06 1.47 2.06.91 0 1.47-.76 1.47-2.06 0-1.31-.55-2.06-1.47-2.06-.93 0-1.47.75-1.47 2.06M-111.434 246.1l1.26-3.1h.05l1.27 3.1h.74v-4h-.58v2.89h-.04l-1.17-2.88h-.48l-1.18 2.89h-.03v-2.9h-.58v4zM-107.364 243.145h.62c.02-.35.37-.57.82-.57.48 0 .83.26.83.65s-.33.68-.9.68h-.34v.49h.34c.45 0 .77.26.77.64 0 .36-.27.61-.69.61-.41 0-.76-.22-.78-.58h-.58c.01.65.62 1.09 1.36 1.09.79 0 1.28-.5 1.28-1.09 0-.45-.28-.78-.71-.89v-.03c.55-.07.86-.44.86-.94 0-.67-.61-1.16-1.44-1.16s-1.42.45-1.44 1.1M-101.553 244.1c0 .99-.33 1.54-.86 1.54-.54 0-.86-.55-.86-1.54 0-1 .32-1.53.86-1.53s.86.53.86 1.53m-2.33 0c0 1.3.55 2.06 1.47 2.06s1.47-.76 1.47-2.06c0-1.31-.55-2.06-1.47-2.06-.93 0-1.47.75-1.47 2.06M-98.488 246.1l1.04-1.81h.04l1.05 1.81h.69l-1.46-2.43v-1.57h-.6v1.57l-1.45 2.43zM-93.698 242.1h-.61v3.39h-.03l-.95-.62v.58l.99.65h.6zM-90.391 243.398c0 .46-.35.83-.83.83-.49 0-.86-.39-.87-.84.01-.44.36-.84.85-.84s.85.38.85.85m-2.35.57c0 1.39.6 2.19 1.56 2.19.74 0 1.25-.46 1.34-1.1h-.6c-.08.33-.34.57-.74.57-.62 0-.98-.54-.98-1.45h.05c.21.34.59.54 1.03.54.71 0 1.28-.54 1.28-1.31s-.57-1.37-1.43-1.36c-.74 0-1.51.44-1.51 1.92M-87.708 246.1h.61v-1.91h.05l1.67 1.91h.76l-1.61-1.8 1.62-2.2h-.74l-1.28 1.79-.47-.55v-1.24h-.61zM-82.237 245.547v.03h-2.06v.52h2.69v-.54l-1.78-3.46h-.63zM-79.066 245.547v.03h-2.06v.52h2.69v-.54l-1.78-3.46h-.63zM-125.714 235.798c.59 0 .84.26.84.71 0 .46-.25.74-.84.74h-.76v-1.45zm-1.36 1.97h1.42c.93 0 1.39-.52 1.39-1.26 0-.54-.25-.94-.73-1.12l.88-1.62h-.69l-.81 1.51h-.86v-1.51h-.6zM-122.122 233.766h-.61v3.39h-.03l-.95-.62v.58l.99.65h.6zM-118.985 236.698c0 .37-.29.62-.72.62-.44 0-.73-.24-.73-.62s.31-.63.73-.63.72.25.72.63m.13-1.82c0 .41-.36.71-.85.71-.5 0-.86-.3-.85-.71-.01-.4.32-.67.85-.67.52 0 .85.27.85.67m-2.32-.05c0 .52.37.94.84 1.01v.02c-.41.1-.69.46-.69.9 0 .61.56 1.06 1.32 1.06s1.31-.45 1.32-1.06c-.01-.44-.29-.81-.69-.9v-.02c.47-.07.84-.49.84-1.01 0-.65-.61-1.12-1.47-1.12s-1.47.47-1.47 1.12M-114.496 237.262c-.67 0-1.19-.53-1.19-1.5 0-.96.51-1.49 1.22-1.49.64 0 1.06.4 1.07 1.04h-.98v.5h1.57v-.45c0-1.01-.7-1.65-1.67-1.65-1.08 0-1.81.79-1.81 2.05 0 1.28.75 2.06 1.78 2.06.87 0 1.53-.54 1.67-1.32h-.62c-.15.47-.51.76-1.04.76M-110.296 235.058v1.98h-.04l-1.26-1.95v-.03zm-1.94-.02 1.76 2.73h.75v-2.71h.55v-.51h-.55v-.78h-.57v.78h-1.94zM-108.55 234.81h.59c.04-.34.36-.59.76-.59.49 0 .84.35.84.83s-.36.84-.86.84c-.32 0-.57-.1-.7-.35h-.58l.26 2.22h2.26v-.51h-1.76l-.13-1.13h.04c.16.17.45.28.75.28.75 0 1.31-.56 1.31-1.34 0-.79-.59-1.35-1.43-1.35-.75 0-1.32.46-1.35 1.1M-101.398 234.87c0 .38-.3.69-.78.69h-.89v-1.28h.86c.58 0 .81.26.81.59m-.15 1.8c0 .33-.23.58-.71.58h-.81v-1.21h.8c.41 0 .72.24.72.63m-2.13 1.1h1.46c.85 0 1.27-.46 1.27-1.05 0-.5-.31-.76-.68-.85v-.04c.4-.02.83-.37.83-.99 0-.61-.42-1.07-1.35-1.07h-1.53zM-97.906 235.064c0 .46-.35.83-.83.83-.49 0-.86-.39-.87-.84.01-.44.36-.84.85-.84s.85.38.85.85m-2.35.57c0 1.39.6 2.19 1.56 2.19.74 0 1.25-.46 1.34-1.1h-.6c-.08.33-.34.57-.74.57-.62 0-.98-.54-.98-1.45h.05c.21.34.59.54 1.03.54.71 0 1.28-.54 1.28-1.31s-.57-1.37-1.43-1.36c-.74 0-1.51.44-1.51 1.92M-94.739 237.212v.03h-2.06v.52h2.69v-.54l-1.78-3.46h-.63zM-127.078 229.43h.61v-1.73h1.99v1.73h.6v-4h-.6v1.75h-1.99v-1.75h-.61zM-123.049 229.43h2.51v-.52h-1.9v-1.21h1.77v-.52h-1.77v-1.22h1.92v-.53h-2.53zM-118.414 227.872h.03l.96 1.56h.7l-1.25-2 1.26-2h-.71l-.96 1.54h-.03l-.96-1.54h-.71l1.28 2-1.27 2h.71zM-113.334 225.43h-.61v3.39h-.03l-.95-.62v.58l.99.65h.6zM-112.312 225.872l1.39 1.4c.43.46.65.71.65 1.06 0 .39-.32.64-.74.64-.44 0-.72-.28-.72-.7h-.58c-.01.73.55 1.21 1.31 1.21.78 0 1.31-.48 1.31-1.13 0-.45-.21-.81-.96-1.55l-.81-.82v-.03h1.84v-.52h-2.69zM-108.942 225.872l1.39 1.4c.43.46.65.71.65 1.06 0 .39-.32.64-.74.64-.44 0-.72-.28-.72-.7h-.58c-.01.73.55 1.21 1.31 1.21.78 0 1.31-.48 1.31-1.13 0-.45-.21-.81-.96-1.55l-.81-.82v-.03h1.84v-.52h-2.69zM-103.528 226.933c0 .62-.28 1.03-.78 1.03-.53 0-.79-.44-.79-1.03 0-.6.27-1.06.79-1.06.5 0 .78.43.78 1.06m-2.17-.01c0 .98.54 1.55 1.26 1.55.56 0 .76-.34.87-.53h.02v1.49h.59v-4h-.57v.47h-.04c-.11-.2-.33-.53-.88-.53-.72 0-1.25.58-1.25 1.55M-100.329 226.723v1.98h-.04l-1.26-1.95v-.03zm-1.94-.02 1.76 2.73h.75v-2.71h.55v-.51h-.55v-.78h-.57v.78h-1.94zM-98.609 226.475h.62c.02-.35.37-.57.82-.57.48 0 .83.26.83.65s-.33.68-.9.68h-.34v.49h.34c.45 0 .77.26.77.64 0 .36-.27.61-.69.61-.41 0-.76-.22-.78-.58h-.58c.01.65.62 1.09 1.36 1.09.79 0 1.28-.5 1.28-1.09 0-.45-.28-.78-.71-.89v-.03c.55-.07.86-.44.86-.94 0-.67-.61-1.16-1.44-1.16s-1.42.45-1.44 1.1"/><path fill="#33586c" d="M28.14 245.597c-.69 0-1.2-.53-1.2-1.5s.51-1.49 1.2-1.49c.5 0 .93.28 1.03.79l.62-.01c-.13-.79-.78-1.34-1.65-1.34-1.05 0-1.81.78-1.81 2.05 0 1.29.77 2.06 1.81 2.06.84 0 1.51-.5 1.65-1.36h-.62c-.1.51-.52.8-1.03.8M32.683 243.398c0 .46-.35.83-.83.83-.49 0-.86-.39-.87-.84.01-.44.36-.84.85-.84s.85.38.85.85m-2.35.57c0 1.39.6 2.19 1.56 2.19.73 0 1.25-.46 1.34-1.1h-.6c-.08.33-.34.57-.74.57-.62 0-.98-.54-.98-1.45h.05c.21.34.59.54 1.02.54.72 0 1.29-.54 1.29-1.31s-.57-1.37-1.43-1.36c-.74 0-1.51.44-1.51 1.92M36.105 246.1l1.26-3.1h.05l1.27 3.1h.74v-4h-.58v2.89h-.04l-1.17-2.88h-.48l-1.18 2.89h-.03v-2.9h-.58v4zM42.119 245.547v.03h-2.06v.52h2.69v-.54l-1.78-3.46h-.63zM45.188 246.1l1.04-1.81h.04l1.05 1.81h.69l-1.46-2.43v-1.57h-.6v1.57l-1.45 2.43zM49.978 242.1h-.61v3.39h-.03l-.95-.62v.58l.99.65h.6zM53.253 244.1c0 .99-.33 1.54-.86 1.54-.54 0-.86-.55-.86-1.54 0-1 .32-1.53.86-1.53s.86.53.86 1.53m-2.33 0c0 1.3.55 2.06 1.47 2.06s1.47-.76 1.47-2.06c0-1.31-.55-2.06-1.47-2.06-.93 0-1.47.75-1.47 2.06M55.935 246.1h.61v-1.91h.05l1.67 1.91h.76l-1.61-1.8 1.62-2.2h-.74l-1.28 1.79-.47-.55v-1.24h-.61zM61.002 242.1h-.61v3.39h-.03l-.95-.62v.58l.99.65h.6zM63.543 242.1h-.61v3.39h-.03l-.95-.62v.58l.99.65h.6zM27.83 235.799c.59 0 .84.26.84.71s-.25.74-.84.74h-.76v-1.45zm-1.36 1.97h1.42c.93 0 1.39-.52 1.39-1.26 0-.54-.25-.94-.73-1.12l.88-1.62h-.69l-.81 1.51h-.86v-1.51h-.6zM29.903 234.208l1.39 1.4c.43.46.65.71.65 1.06 0 .39-.32.64-.74.64-.44 0-.73-.28-.73-.7h-.57c-.01.73.55 1.21 1.31 1.21.78 0 1.31-.48 1.31-1.14 0-.44-.21-.8-.96-1.54l-.81-.82v-.03h1.84v-.52h-2.69zM34.792 233.766h-.61v3.39h-.03l-.95-.62v.58l.99.65h.6zM38.101 235.064c0 .46-.35.83-.83.83-.49 0-.86-.39-.87-.84.01-.44.36-.84.85-.84s.85.38.85.85m-2.35.57c0 1.39.6 2.19 1.56 2.19.73 0 1.25-.46 1.34-1.1h-.6c-.08.33-.34.57-.74.57-.62 0-.98-.54-.98-1.45h.05c.21.34.59.55 1.02.55.72 0 1.29-.55 1.29-1.32s-.57-1.37-1.43-1.36c-.74 0-1.51.44-1.51 1.92M42.445 237.263c-.67 0-1.19-.53-1.19-1.5 0-.96.51-1.49 1.22-1.49.64 0 1.06.4 1.07 1.04h-.98v.5h1.57v-.45c0-1.01-.7-1.65-1.67-1.65-1.08 0-1.81.79-1.81 2.05 0 1.28.75 2.06 1.79 2.06.86 0 1.52-.54 1.66-1.32h-.62c-.15.47-.51.76-1.04.76M44.79 234.208l1.39 1.4c.43.46.65.71.65 1.06 0 .39-.32.64-.74.64-.44 0-.73-.28-.73-.7h-.57c-.01.73.55 1.21 1.31 1.21.78 0 1.31-.48 1.31-1.14 0-.44-.21-.8-.96-1.54l-.81-.82v-.03h1.84v-.52h-2.69zM49.68 233.766h-.61v3.39h-.03l-.95-.62v.58l.99.65h.6zM50.7 234.208l1.39 1.4c.43.46.65.71.65 1.06 0 .39-.32.64-.74.64-.44 0-.72-.28-.72-.7h-.58c-.01.73.55 1.21 1.31 1.21.78 0 1.31-.48 1.31-1.13 0-.45-.21-.81-.96-1.55l-.81-.82v-.03h1.84v-.52H50.7zM57.791 234.871c0 .38-.3.69-.78.69h-.89v-1.28h.86c.58 0 .81.26.81.59m-.15 1.8c0 .33-.23.58-.71.58h-.81v-1.21h.8c.41 0 .72.24.72.63m-2.13 1.09h1.46c.85 0 1.27-.45 1.27-1.04 0-.5-.31-.76-.68-.85v-.04c.4-.02.83-.37.83-.99 0-.61-.42-1.08-1.35-1.08h-1.53zM58.996 234.208l1.39 1.4c.43.46.65.71.65 1.06 0 .39-.32.64-.74.64-.44 0-.72-.28-.72-.7h-.58c-.01.73.55 1.21 1.31 1.21.78 0 1.31-.48 1.31-1.13 0-.45-.21-.81-.96-1.55l-.81-.82v-.03h1.84v-.52h-2.69zM64.62 235.766c0 .99-.33 1.54-.86 1.54-.54 0-.86-.55-.86-1.54 0-1 .32-1.53.86-1.53s.86.53.86 1.53m-2.33 0c0 1.3.55 2.06 1.47 2.06s1.47-.76 1.47-2.06c0-1.31-.55-2.06-1.47-2.06-.93 0-1.47.75-1.47 2.06M65.869 234.81h.59c.04-.34.36-.59.76-.59.49 0 .84.35.84.83s-.36.84-.86.84c-.32 0-.57-.1-.7-.35h-.58l.26 2.22h2.26v-.51h-1.76l-.13-1.13h.04c.16.17.45.28.75.28.75 0 1.31-.56 1.31-1.34s-.59-1.35-1.43-1.35c-.75 0-1.32.46-1.35 1.1M26.466 229.43h.61v-1.73h1.99v1.73h.6v-4h-.6v1.75h-1.99v-1.75h-.61zM30.495 229.43h2.51v-.52h-1.9v-1.21h1.77v-.52h-1.77v-1.22h1.92v-.53h-2.53zM35.13 227.872h.03l.96 1.56h.7l-1.25-2 1.26-2h-.71l-.96 1.54h-.03l-.96-1.54h-.71l1.28 2-1.27 2h.71zM40.735 226.934c0 .62-.28 1.03-.78 1.03-.53 0-.79-.44-.79-1.03 0-.6.27-1.06.78-1.06s.79.43.79 1.06m-2.17-.01c0 .98.53 1.55 1.26 1.55.56 0 .76-.34.87-.53h.02v1.49h.59v-4h-.57v.47h-.05c-.11-.2-.32-.53-.87-.53-.72 0-1.25.58-1.25 1.55M44.194 228.364c0 .37-.29.62-.72.62-.44 0-.73-.24-.73-.62s.31-.63.73-.63.72.25.72.63m.13-1.82c0 .41-.36.71-.85.71-.5 0-.86-.3-.85-.71-.01-.39.32-.67.85-.67.52 0 .85.27.85.67m-2.32-.05c0 .52.37.94.84 1.01v.02c-.41.09-.69.46-.69.9 0 .61.56 1.06 1.32 1.06s1.31-.45 1.32-1.06c-.01-.44-.29-.81-.69-.9v-.02c.47-.07.84-.49.84-1.01 0-.65-.61-1.12-1.47-1.12-.87 0-1.47.47-1.47 1.12M47.625 226.934c0 .62-.28 1.03-.78 1.03-.53 0-.79-.44-.79-1.03 0-.6.27-1.06.79-1.06.5 0 .78.43.78 1.06m-2.17-.01c0 .98.54 1.55 1.26 1.55.56 0 .76-.34.87-.53h.02v1.49h.59v-4h-.57v.47h-.04c-.11-.2-.33-.53-.88-.53-.72 0-1.25.58-1.25 1.55M50.824 226.724v1.98h-.04l-1.26-1.95v-.03zm-1.94-.02 1.76 2.73h.75v-2.71h.55v-.51h-.55v-.78h-.57v.78h-1.94zM52.439 226.917c0 .92.55 1.55 1.39 1.55.69 0 1.18-.4 1.24-1.01h-.57c-.06.28-.29.52-.66.52-.48 0-.81-.4-.81-1.04 0-.66.32-1.06.81-1.06.33 0 .59.18.66.5h.57c-.06-.58-.52-1.01-1.23-1.01-.87 0-1.4.65-1.4 1.55M57.676 226.934c0 .62-.28 1.03-.78 1.03-.53 0-.79-.44-.79-1.03 0-.6.27-1.06.78-1.06s.79.43.79 1.06m-2.17-.01c0 .98.53 1.55 1.26 1.55.56 0 .76-.34.87-.53h.02v1.49h.59v-4h-.57v.47h-.05c-.11-.2-.32-.53-.87-.53-.72 0-1.25.58-1.25 1.55M224.838 261.915h.04l1.26 2.05h.92l-1.64-2.63 1.66-2.63h-.94l-1.26 2.03h-.04l-1.26-2.03h-.93l1.67 2.63-1.67 2.63h.94zM227.7 262.65h.77v-3.94h-.77zm-.1 1.07c0 .25.22.45.49.45.26 0 .49-.2.49-.45 0-.26-.23-.46-.49-.46-.27 0-.49.2-.49.46M231.298 263.963h.8v-2.28h2.61v2.28h.8v-5.26h-.8v2.3h-2.61v-2.3h-.8zM239.154 261.022c0 .6-.39 1.04-.98 1.04-.62 0-1.03-.48-1.05-1.04zm-2.81-.37c0 1.21.72 2.05 1.82 2.05.9 0 1.75-.56 1.75-1.98v-.28h-2.8c.02-.75.46-1.18 1.11-1.18.44 0 .73.19.86.43h.78c-.17-.64-.78-1.07-1.65-1.07-1.16 0-1.87.8-1.87 2.03M240.685 262.648h.75v-.62h.04c.15.42.54.68 1 .68.1 0 .25-.01.33-.02v-.74c-.06.02-.25.05-.41.05-.53 0-.93-.37-.93-.89v-2.4h-.78zM243.39 262.65h.77v-3.94h-.77zm-.11 1.07c0 .25.23.45.5.45.26 0 .48-.2.48-.45a.47.47 0 0 0-.48-.46c-.27 0-.5.2-.5.46M246.95 262.031h-.81v-2.16c0-.45.23-.53.48-.53.1 0 .28.01.39.02v-.68c-.11-.01-.28-.03-.49-.03-.61 0-1.15.34-1.15 1.06v2.32h-.58v.62h.58v.94h.77v-.94h.81zM249.026 259.235c.63 0 1.01.42 1.01.89v.37l-.93-.07c-.51-.04-.83-.22-.83-.62 0-.37.31-.57.75-.57m-.03 1.76c.26.02.85.06 1.04.06l-.01.31c0 .45-.27.71-.8.71-.45 0-.73-.21-.81-.5h-.77c.07.65.68 1.12 1.61 1.12.63 0 1.55-.23 1.55-1.37v-2.62h-.76v.54h-.02c-.16-.3-.52-.63-1.17-.63-.75 0-1.33.43-1.33 1.2 0 .9.76 1.13 1.47 1.19M254.421 260.702c0 .8-.36 1.34-1.03 1.34-.69 0-1.03-.58-1.03-1.34 0-.77.35-1.3 1.03-1.3.66 0 1.03.49 1.03 1.3m-2.75-2.38h.8c.07-.37.42-.56.93-.56.62 0 1.01.27 1.01.88v.78h-.05c-.14-.25-.42-.66-1.15-.66-.93 0-1.64.7-1.64 1.95 0 1.26.7 1.99 1.65 1.99.74 0 1-.45 1.15-.69h.05v.64h.75v-4.04c0-1-.76-1.47-1.77-1.47-1 0-1.65.44-1.73 1.18M258.755 261.022c0 .6-.39 1.04-.98 1.04-.62 0-1.03-.48-1.05-1.04zm-2.81-.37c0 1.21.73 2.05 1.82 2.05.9 0 1.75-.56 1.75-1.98v-.28h-2.8c.02-.75.46-1.18 1.11-1.18.44 0 .73.19.86.43h.78c-.17-.64-.78-1.07-1.65-1.07-1.16 0-1.87.8-1.87 2.03M265.165 260.157c0 .5-.4.91-1.03.91h-1.17v-1.68h1.14c.75 0 1.06.33 1.06.77m-.2 2.36c0 .44-.29.76-.93.76h-1.07v-1.59h1.06c.53 0 .94.33.94.83m-2.8 1.45h1.93c1.11 0 1.66-.61 1.66-1.38 0-.66-.4-.99-.89-1.12v-.05c.53-.02 1.09-.48 1.09-1.3 0-.8-.55-1.41-1.78-1.41h-2.01zM267.52 258.71h-.77v5.25h.77zM270.973 262.648h.77v-3.94h-.75v.68h-.05c-.18-.42-.59-.73-1.18-.73-.76 0-1.3.5-1.3 1.48v2.51h.78v-2.41c0-.54.33-.88.8-.88.43 0 .93.31.93.99zM275.321 261.022c0 .6-.39 1.04-.98 1.04-.62 0-1.03-.48-1.05-1.04zm-2.81-.37c0 1.21.73 2.05 1.82 2.05.9 0 1.75-.56 1.75-1.98v-.28h-2.8c.02-.75.46-1.18 1.11-1.18.44 0 .73.19.86.43h.78c-.17-.64-.78-1.07-1.65-1.07-1.16 0-1.87.8-1.87 2.03M224.824 251.005c.82 0 1.21.49 1.21 1.17s-.39 1.17-1.22 1.17h-1.18v-2.34zm-1.71 2.8h1.72c1.14 0 1.71-.7 1.71-1.63 0-.92-.57-1.64-1.7-1.64h-1.21v-1.99h-.52zM230.168 250.57l-.92 2.57h-.03l-.91-2.57zm-3.12-2.02 1.91 5.26h.56l1.91-5.26h-.55l-.55 1.56h-2.19l-.55-1.56zM236.296 248.55h-.49l-3.06 4.34h-.05v-4.34h-.51v5.26h.5l3.06-4.35h.04v4.35h.51zM237.229 253.809h3.84v-.47h-1.65v-4.79h-.53v4.8h-1.66zM244.063 253.395c-1.02 0-1.78-.81-1.78-2.21s.76-2.22 1.78-2.22 1.78.81 1.78 2.22c0 1.4-.76 2.21-1.78 2.21m0-4.92c-1.34 0-2.29 1.06-2.29 2.71 0 1.64.95 2.7 2.29 2.7 1.33 0 2.28-1.06 2.28-2.7 0-1.65-.95-2.71-2.28-2.71M251.476 248.55h-.49l-3.06 4.34h-.05v-4.34h-.51v5.26h.5l3.06-4.35h.04v4.35h.51zM252.722 253.809h3.08v-.47h-2.56v-1.93h2.4v-.45h-2.4v-1.94h2.61v-.47h-3.13zM261.195 253.315v.03h-2.83v.46h3.37v-.48l-2.45-4.77h-.55zM265.231 253.315v.03h-2.83v.46h3.37v-.48l-2.45-4.77h-.55zM269.58 251.18c0 1.42-.48 2.24-1.27 2.24-.8 0-1.27-.82-1.27-2.24s.47-2.24 1.27-2.24 1.27.82 1.27 2.24m-3.05 0c0 1.7.66 2.7 1.78 2.7 1.11 0 1.77-1 1.77-2.7 0-1.71-.65-2.7-1.77-2.7-1.13 0-1.78.99-1.78 2.7M273.392 250.126v2.99h-.05l-1.9-2.95v-.04zm-2.53-.04 2.4 3.72h.62v-3.68h.72v-.46h-.72v-1.12h-.49v1.12h-2.53zM279.467 253.395c-.99 0-1.78-.78-1.78-2.21 0-1.44.79-2.22 1.78-2.22.8 0 1.42.51 1.57 1.24h.52c-.17-.99-.98-1.73-2.09-1.73-1.34 0-2.29 1.06-2.29 2.71 0 1.64.95 2.7 2.29 2.7 1.11 0 1.91-.73 2.09-1.72h-.52c-.15.71-.77 1.23-1.57 1.23"/><path fill="#002f47" d="M254.923 537.899c-49.48 0-104.28-18.72-156.46-53.99l-44.79 36.52H7.603l64.21-56.19c-24.36-19.52-47.8-42.72-69.48-69.38h56.67c12.49 16.89 25.84 32.19 39.78 45.76l52.29-45.76h56.6l-83.49 68.08c34.05 26.83 70.48 43.7 105.86 48.77v-116.85h42.12v143.01z"/></g></g></svg>