<svg xmlns="http://www.w3.org/2000/svg" width="56.849579mm" height="47.197811mm" viewBox="0 0 56.849579 47.197811"><path d="M22.003 8.817c-7.751 0-15.17-1.23-22.003-3.128v31.267c9.499-4.332 18.102-6.698 30.132-6.698 9.568 0 18.627 2.063 26.718 5.279V0C46.44 5.387 36.084 8.817 22.003 8.817" style="fill:#e86851;fill-opacity:1;fill-rule:nonzero;stroke:none;stroke-width:.352778"/><path d="M18.453 16.894c-.769 0-1.427.26-1.96.771-.601.58-.906 1.329-.906 2.224 0 .91.302 1.66.898 2.231.523.507 1.185.764 1.968.764.779 0 1.44-.255 1.963-.757.595-.57.897-1.324.897-2.238 0-.895-.304-1.644-.904-2.222-.523-.513-1.181-.773-1.956-.773zm6.76 0c-.77 0-1.43.26-1.961.771-.601.58-.906 1.329-.906 2.224 0 .91.302 1.66.899 2.231.52.507 1.183.764 1.967.764.779 0 1.44-.255 1.962-.757.596-.57.898-1.323.898-2.238 0-.895-.305-1.644-.904-2.222-.524-.513-1.181-.773-1.956-.773zm24.753 0c-.8 0-1.477.26-2.009.771-.596.582-.9 1.33-.9 2.224 0 .91.3 1.66.892 2.231.524.507 1.185.764 1.968.764.851 0 1.547-.29 2.068-.86.515-.565.777-1.308.777-2.208v-.363h-3.271v1.337h1.72c-.262.503-.676.755-1.297.755-.492 0-.874-.147-1.165-.451-.293-.306-.435-.7-.435-1.205 0-.522.167-.931.508-1.25.292-.274.65-.406 1.092-.406.562 0 1.014.244 1.38.745l.158.217 1.097-.697-.17-.246c-.621-.901-1.433-1.358-2.413-1.358zm-45.701.163v5.68h3.48c1.167 0 1.809-.577 1.809-1.626 0-.696-.24-1.099-.52-1.336.23-.278.346-.623.346-1.034 0-.494-.143-.901-.423-1.21-.29-.314-.68-.474-1.166-.474H4.265zm6.375 0v5.68h4.335V21.4h-3.1v-4.343H10.64zm18.412 0v5.68h1.237v-3.482l1.797 2.89 1.812-2.902v3.495h1.238v-5.68h-1.268l-1.779 2.835c-.37-.592-1.763-2.836-1.763-2.836h-1.274zm11.887 0v5.68h1.237v-3.593l2.636 3.594h1.253v-5.68h-1.239v3.602l-2.632-3.603H40.94zm-19.903.71h.001zm.007.003v.001h.001l-.001-.001zm-2.588.463c.443 0 .8.132 1.093.405.344.32.51.729.51 1.251 0 .505-.142.899-.436 1.205-.292.304-.673.451-1.167.451-.5 0-.885-.147-1.176-.449-.295-.303-.438-.698-.438-1.207 0-.49.148-.882.45-1.195.297-.31.679-.461 1.164-.461zm6.757 0c.444 0 .803.132 1.095.405.343.32.511.729.511 1.251 0 .505-.143.899-.438 1.205-.291.304-.673.451-1.168.451-.498 0-.883-.147-1.174-.449-.295-.303-.438-.698-.438-1.207 0-.49.148-.882.448-1.195.3-.31.68-.461 1.164-.461zm-19.711.164h2.326c.145 0 .207.05.241.09.064.068.093.168.093.303a.422.422 0 0 1-.108.299.32.32 0 0 1-.253.107H5.5v-.8zm0 2.139h2.356c.326 0 .442.12.442.455 0 .206-.043.409-.546.409H5.501v-.864z" style="fill:#fff;fill-opacity:1;fill-rule:nonzero;stroke:none;stroke-width:.352778"/><path d="M35.847 10.134a1.375 1.375 0 1 0 0 2.75 1.375 1.375 0 0 0 0-2.75zm.509 3.411a.022.022 0 0 1-.01.007c.446.449.988 3.882.802 7.433-.2 3.817-1.557 6.155-1.557 6.155s3.454-2.495 3.777-6.366c.3-3.604-2.482-6.803-3.012-7.229z" style="fill:#a1cc57;fill-opacity:1;fill-rule:nonzero;stroke:none;stroke-width:.352778"/><path d="M46.33 35.514v6.424l1.928-.264v-6.16h-1.929zm-36.666.052v2.909c0 .368.12.664.364.888.244.225.566.337.965.337h6.786v-4.134h-1.923v1.143h-4.26v-1.143H9.664zm14.769.225.266 1.063H30.9v1.17H24.67v1.986c0 .368.106.653.327.856.22.202.535.303.943.303h7.112l.137-1.049h-6.593v-1.032h6.23v-3.297h-8.393zm14.18.064v4.253c0 .365.12.663.358.887.235.226.56.338.969.338h4.72v-5.478h-6.047zm1.926 1.05h2.189v3.365h-2.189v-3.365zm-28.943.84h4.26v.921h-4.26v-.922zm-3.332 2.784.266 1.035h10.532l.133-1.035H8.265zm36.045 1.465c-.99 0-1.838.254-2.546.764-.702.508-1.054 1.126-1.054 1.847 0 .719.352 1.335 1.054 1.838.708.503 1.556.755 2.546.755.998 0 1.845-.252 2.55-.755.704-.503 1.057-1.12 1.057-1.838 0-.721-.353-1.339-1.057-1.847-.705-.51-1.552-.764-2.55-.764zm-21.026.196.263 1.049h4.237v3.912l1.929-.263v-3.65h4.37l.132-1.048h-10.93zm-13.665.16.265 1.048h6.043v.731h-6.05v1.546c0 .364.129.663.377.893.246.233.567.347.97.347h6.858l.132-1.035H11.81v-.759h6.041V42.35H9.618zm34.691.69c.487 0 .898.157 1.23.476.336.315.507.676.507 1.089 0 .41-.17.767-.507 1.077-.332.305-.743.459-1.23.459-.467 0-.872-.154-1.215-.459-.343-.31-.514-.667-.514-1.077 0-.413.17-.774.514-1.09a1.726 1.726 0 0 1 1.215-.475z" style="fill:#85785c;fill-opacity:1;fill-rule:nonzero;stroke:none;stroke-width:.352778"/></svg>