<svg xmlns="http://www.w3.org/2000/svg" xml:space="preserve" width="611.4129" height="400" viewBox="0 0 611.4129 399.99998"><path d="M374.613-238.307c-2.793 2.347-6.047 3.534-9.773 3.534-4.563 0-8.184-1.5-10.88-4.511-2.6-2.906-4.189-7.033-4.747-12.364h31.263c-.558 5.916-2.513 10.357-5.863 13.341" style="fill:#1b3f8b;fill-opacity:1;fill-rule:nonzero;stroke:none;stroke-width:.872549" transform="matrix(1.33333 0 0 -1.33333 -195.79 -124.502)"/><path d="m209.744-93.376-62.902-234.708 243.712-65.292 62.902 234.69zm68.958-209.116-16.456 87.56h-.157c-1.85-11.744-17.015-87.56-17.015-87.56H224.29L194.152-190.63h23.716l17.163-80.004 15.348 80.004h23.306l16.465-80.004 17.573 80.004h22.739l-30.278-111.86zm122.602 36.709h-53.025v-.559c.76-5.314 1.963-9.319 3.63-12.024 2.897-4.842 7.722-7.268 14.52-7.268 2.87 0 5.522.794 7.957 2.373 2.495 1.667 4.258 3.874 5.287 6.553h20.942c-2.522-8.909-7.269-15.653-14.24-20.19-5.768-3.9-12.408-5.847-19.947-5.847-11.814 0-21.028 3.246-27.634 9.764-7.434 7.539-11.16 19.126-11.16 34.771-.104 9.118 1.86 17.224 5.855 24.283 6.335 11.186 16.797 16.762 31.395 16.762 9.764 0 17.765-2.81 23.995-8.394 8.28-7.53 12.425-19.545 12.425-36.045zm11.203 39.77-3.001 35.347h16.23l-3.028-35.347h-10.2M489.144-278.994l-16.745 61.829h-23.018l28.463-85.527h22.04l28.611 85.527h-22.049l-17.303-61.829M592.994-225.559c-6.238 5.584-14.23 8.394-24.012 8.394-14.59 0-25.06-5.576-31.395-16.762-3.987-7.059-5.933-15.165-5.854-24.283 0-15.645 3.725-27.232 11.168-34.77 6.597-6.519 15.81-9.765 27.625-9.765 7.539 0 14.17 1.946 19.955 5.846 6.963 4.538 11.71 11.282 14.24 20.191h-20.95c-1.003-2.679-2.792-4.886-5.287-6.553-2.426-1.579-5.06-2.373-7.958-2.373-6.788 0-11.622 2.426-14.51 7.268-1.676 2.705-2.88 6.71-3.63 12.024v.559h53.016v4.179c0 16.5-4.136 28.515-12.408 36.045zm-39.674-26.09c.558 5.332 2.137 9.46 4.737 12.365 2.705 3.01 6.335 4.51 10.89 4.51 3.708 0 6.963-1.186 9.764-3.533 3.342-2.984 5.305-7.425 5.872-13.341H553.32" style="fill:#1b3f8b;fill-opacity:1;fill-rule:nonzero;stroke:none;stroke-width:.872549" transform="matrix(1.33333 0 0 -1.33333 -195.79 -124.502)"/></svg>